<svg id="visual" viewBox="0 0 960 540" width="960" height="540" xmlns="http://www.w3.org/2000/svg" xmlns:xlink="http://www.w3.org/1999/xlink" version="1.1"><rect x="0" y="0" width="960" height="540" fill="#252422"></rect><defs><linearGradient id="grad1_0" x1="43.8%" y1="100%" x2="100%" y2="0%"><stop offset="14.444444444444446%" stop-color="#252422" stop-opacity="1"></stop><stop offset="85.55555555555554%" stop-color="#252422" stop-opacity="1"></stop></linearGradient></defs><defs><linearGradient id="grad2_0" x1="0%" y1="100%" x2="56.3%" y2="0%"><stop offset="14.444444444444446%" stop-color="#252422" stop-opacity="1"></stop><stop offset="85.55555555555554%" stop-color="#252422" stop-opacity="1"></stop></linearGradient></defs><g transform="translate(960, 540)"><path d="M-162 0C-148.3 -17.8 -134.6 -35.6 -124.7 -51.7C-114.8 -67.7 -108.6 -82 -99.7 -99.7C-90.8 -117.5 -79.1 -138.7 -62 -149.7C-44.9 -160.6 -22.5 -161.3 0 -162L0 0Z" fill="#eb5e28"></path></g><g transform="translate(0, 0)"><path d="M162 0C152.8 17.9 143.7 35.7 137.7 57C131.6 78.3 128.7 103 114.6 114.6C100.4 126.1 74.9 124.5 54 130.3C33 136 16.5 149 0 162L0 0Z" fill="#eb5e28"></path></g></svg>