<svg id="visual" viewBox="0 0 960 540" width="960" height="540" xmlns="http://www.w3.org/2000/svg" xmlns:xlink="http://www.w3.org/1999/xlink" version="1.1"><rect x="0" y="0" width="960" height="540" fill="#252422"></rect><defs><linearGradient id="grad1_0" x1="43.8%" y1="0%" x2="100%" y2="100%"><stop offset="14.444444444444446%" stop-color="#252422" stop-opacity="1"></stop><stop offset="85.55555555555554%" stop-color="#252422" stop-opacity="1"></stop></linearGradient></defs><defs><linearGradient id="grad2_0" x1="0%" y1="0%" x2="56.3%" y2="100%"><stop offset="14.444444444444446%" stop-color="#252422" stop-opacity="1"></stop><stop offset="85.55555555555554%" stop-color="#252422" stop-opacity="1"></stop></linearGradient></defs><g transform="translate(960, 0)"><path d="M0 162C-17.8 148.3 -35.6 134.6 -51.7 124.7C-67.7 114.8 -82 108.6 -99.7 99.7C-117.5 90.8 -138.7 79.1 -149.7 62C-160.6 44.9 -161.3 22.5 -162 0L0 0Z" fill="#eb5e28"></path></g><g transform="translate(0, 540)"><path d="M0 -162C17.9 -152.8 35.7 -143.7 57 -137.7C78.3 -131.6 103 -128.7 114.6 -114.6C126.1 -100.4 124.5 -74.9 130.3 -54C136 -33 149 -16.5 162 0L0 0Z" fill="#eb5e28"></path></g></svg>