<svg xmlns="http://www.w3.org/2000/svg" xmlns:xlink="http://www.w3.org/1999/xlink" version="1.1" width="1000" height="1000" viewBox="0 0 1000 1000" xml:space="preserve">
<desc>Created with Fabric.js 3.5.0</desc>
<defs>
</defs>
<rect x="0" y="0" width="100%" height="100%" fill="rgba(255,255,255,0)"/>
<g transform="matrix(8.2068 0 0 3.1888 498.651 493.4901)" id="302490">
<path style="stroke: none; stroke-width: 1; stroke-dasharray: none; stroke-linecap: butt; stroke-dashoffset: 0; stroke-linejoin: miter; stroke-miterlimit: 4; is-custom-font: none; font-file-url: none; fill: rgb(255,252,242); fill-rule: nonzero; opacity: 1;" vector-effect="non-scaling-stroke" transform=" translate(-43.5, -25)" d="M 87 0 H 0 V 50 H 87 V 0 Z" stroke-linecap="round"/>
</g>
<g transform="matrix(2.2727 0 0 2.2727 499.9945 499.9983)" id="140716">
<g style="" vector-effect="non-scaling-stroke">
		<g transform="matrix(0.1333 0 0 -0.1333 -0.1289 -0.7553)">
<path style="stroke: none; stroke-width: 1; stroke-dasharray: none; stroke-linecap: butt; stroke-dashoffset: 0; stroke-linejoin: miter; stroke-miterlimit: 4; is-custom-font: none; font-file-url: none; fill: rgb(235,94,40); fill-rule: nonzero; opacity: 1;" transform=" translate(-1499.3756, -470.5845)" d="M 172 780 c -12 -5 -27 -21 -32 -35 c -15 -38 -13 -517 2 -550 c 7 -16 24 -29 47 -36 c 24 -7 457 -9 1333 -7 l 1297 3 l 23 23 c 23 22 23 28 26 270 c 4 270 -2 311 -43 330 c -32 15 -2617 16 -2653 2 z m 674 -97 c 49 -35 56 -65 52 -211 c -3 -120 -5 -132 -26 -155 c -37 -39 -84 -48 -227 -45 l -130 3 l -3 209 c -2 161 1 212 10 218 c 7 5 76 7 153 6 c 126 -3 143 -5 171 -25 z m 952 -94 l 3 -27 l 25 23 c 21 19 38 23 117 27 c 152 8 187 -18 187 -140 c 0 -87 0 -87 -117 -87 c -46 0 -83 -3 -83 -7 c 0 -5 41 -8 90 -8 l 90 0 l 0 -44 c 0 -31 -5 -46 -16 -50 c -9 -3 -67 -6 -130 -6 c -109 0 -116 1 -139 25 c -23 22 -25 32 -25 118 l 0 94 l -57 -9 c -32 -5 -61 -12 -65 -16 c -4 -4 -9 -52 -10 -107 l -3 -100 l -60 0 l -60 0 l 0 165 l 0 165 l 53 3 c 40 2 54 -1 58 -13 c 5 -12 9 -13 20 -4 c 17 14 71 28 99 26 c 14 -1 21 -10 23 -28 z m -573 -4 c 24 -23 25 -29 25 -154 c 0 -71 -3 -136 -6 -145 c -7 -19 -94 -22 -112 -4 c -9 9 -15 9 -24 0 c -7 -7 -39 -12 -75 -12 c -54 0 -68 4 -88 25 c -21 20 -25 34 -25 86 c 0 51 4 67 22 86 c 19 20 31 23 100 23 c 107 0 99 19 -9 22 l -88 3 l -3 38 c -4 49 13 56 151 56 c 102 1 109 0 132 -24 z m 161 10 c 5 -13 8 -13 27 0 c 12 8 43 15 69 15 l 48 0 l 0 -50 c 0 -55 2 -53 -75 -66 l -50 -9 l -5 -105 l -5 -105 l -55 0 l -55 0 l -3 155 c -1 85 0 160 2 167 c 8 19 95 17 102 -2 z m 889 5 c 4 -7 12 -7 25 0 c 10 5 47 10 82 10 c 57 0 67 -3 91 -28 l 28 -29 l -3 -139 l -3 -139 l -60 0 l -60 0 l -3 113 l -3 113 l -42 -3 l -42 -3 l 0 -102 c 0 -61 -4 -106 -11 -113 c -6 -6 -33 -10 -60 -8 l -49 3 l -3 155 c -1 85 0 160 2 167 c 6 16 102 18 111 3 z" stroke-linecap="round"/>
</g>
		<g transform="matrix(0.1333 0 0 -0.1333 -106.0955 -3.4037)">
<path style="stroke: none; stroke-width: 1; stroke-dasharray: none; stroke-linecap: butt; stroke-dashoffset: 0; stroke-linejoin: miter; stroke-miterlimit: 4; is-custom-font: none; font-file-url: none; fill: rgb(235,94,40); fill-rule: nonzero; opacity: 1;" transform=" translate(-704.3, -490.5)" d="M 640 490 l 0 -110 l 54 0 c 34 0 58 5 65 14 c 8 9 11 47 9 107 l -3 94 l -62 3 l -63 3 l 0 -111 z" stroke-linecap="round"/>
</g>
		<g transform="matrix(0.1333 0 0 -0.1333 61.5817 -4.6953)">
<path style="stroke: none; stroke-width: 1; stroke-dasharray: none; stroke-linecap: butt; stroke-dashoffset: 0; stroke-linejoin: miter; stroke-miterlimit: 4; is-custom-font: none; font-file-url: none; fill: rgb(235,94,40); fill-rule: nonzero; opacity: 1;" transform=" translate(-1961.8719, -500.2105)" d="M 1937 514 c -19 -19 -6 -35 26 -32 c 39 4 45 32 7 36 c -14 2 -29 0 -33 -4 z" stroke-linecap="round"/>
</g>
		<g transform="matrix(0.1333 0 0 -0.1333 -55.7795 10.585)">
<path style="stroke: none; stroke-width: 1; stroke-dasharray: none; stroke-linecap: butt; stroke-dashoffset: 0; stroke-linejoin: miter; stroke-miterlimit: 4; is-custom-font: none; font-file-url: none; fill: rgb(235,94,40); fill-rule: nonzero; opacity: 1;" transform=" translate(-1081.6635, -385.609)" d="M 1060 391 c -17 -5 -21 -9 -12 -15 c 15 -9 72 2 72 15 c 0 10 -23 10 -60 0 z" stroke-linecap="round"/>
</g>
</g>
</g>
<g transform="matrix(4.6606 0 0 1.0713 499.8938 494.3658)" id="624284" clip-path="url(#CLIPPATH_4)">
<clipPath id="CLIPPATH_4">
	<rect transform="matrix(1 0 0 1 0.0001 0)" id="clip0_302_96" x="-79" y="-79" rx="0" ry="0" width="158" height="158"/>
</clipPath>
<path style="stroke: none; stroke-width: 1; stroke-dasharray: none; stroke-linecap: butt; stroke-dashoffset: 0; stroke-linejoin: miter; stroke-miterlimit: 4; is-custom-font: none; font-file-url: none; fill: rgb(235,94,40); fill-rule: nonzero; opacity: 1;" vector-effect="non-scaling-stroke" transform=" translate(-78.9999, -79)" d="M 106.124 -0.0000765851 H 51.8754 C 51.8303 -0.0000765851 51.7848 -0.0000765851 51.7397 -0.0000765851 C 23.1271 0.0374314 -0.0376151 23.2628 -0.000107103 51.8754 V 106.124 C -0.000107103 106.17 -0.000107103 106.215 -0.000107103 106.26 C 0.0374009 134.873 23.2628 158.037 51.8754 158 H 106.124 C 106.17 158 106.215 158 106.26 158 C 134.873 157.962 158.037 134.737 158 106.124 V 51.8754 C 158 51.8303 158 51.7848 158 51.7397 C 157.962 23.1271 134.737 -0.0375846 106.124 -0.0000765851 Z" stroke-linecap="round"/>
</g>
<g transform="matrix(1 0 0 1 500 500)" style="" id="297447">
		
<path xml:space="preserve" font-family="ABeeZee" font-size="141" font-style="normal" font-weight="normal" style="stroke: none; stroke-width: 0; stroke-dasharray: none; stroke-linecap: butt; stroke-dashoffset: 0; stroke-linejoin: miter; stroke-miterlimit: 4; is-custom-font: none; font-file-url: none; fill: rgb(255,252,242); fill-rule: nonzero; opacity: 1; white-space: pre;" d="M-317.04 44.01L-317.04-54.12Q-310.41-54.83-304.07-55.18Q-297.72-55.53-289.54-55.53L-289.54-55.53Q-276.85-55.53-267.69-51.59Q-258.52-47.64-252.46-40.73Q-246.40-33.82-243.51-24.66Q-240.62-15.49-240.62-5.20L-240.62-5.20Q-240.62 5.10-243.58 14.33Q-246.54 23.57-252.67 30.48Q-258.81 37.38-268.32 41.40Q-277.84 45.42-291.09 45.42L-291.09 45.42Q-299.13 45.42-305.12 45.07Q-311.12 44.72-317.04 44.01L-317.04 44.01ZM-289.97-43.97L-289.97-43.97Q-294.06-43.97-297.44-43.76Q-300.82-43.55-303.64-43.27L-303.64-43.27L-303.64 33.01Q-300.68 33.44-297.44 33.58Q-294.20 33.72-290.67 33.72L-290.67 33.72Q-281.22 33.72-274.32 30.83Q-267.41 27.94-262.96 22.79Q-258.52 17.64-256.41 10.52Q-254.29 3.40-254.29-5.20L-254.29-5.20Q-254.29-12.81-256.41-19.79Q-258.52-26.77-262.89-32.20Q-267.27-37.63-274.03-40.80Q-280.80-43.97-289.97-43.97Z"/><path xml:space="preserve" font-family="ABeeZee" font-size="141" font-style="normal" font-weight="normal" style="stroke: none; stroke-width: 0; stroke-dasharray: none; stroke-linecap: butt; stroke-dashoffset: 0; stroke-linejoin: miter; stroke-miterlimit: 4; is-custom-font: none; font-file-url: none; fill: rgb(255,252,242); fill-rule: nonzero; opacity: 1; white-space: pre;" d="M-214.53 8.06L-214.53 8.06Q-214.53-0.12-211.99-7.24Q-209.46-14.36-204.87-19.58Q-200.29-24.80-193.88-27.76Q-187.46-30.72-179.85-30.72L-179.85-30.72Q-173.50-30.72-168.35-28.53Q-163.21-26.35-159.40-23.10L-159.40-23.10L-159.40-29.03L-147.84-29.03L-147.84 26.53Q-147.84 31.89-145.23 33.51Q-142.62 35.13-139.52 35.13L-139.52 35.13L-142.20 45.00Q-155.73 45.00-158.55 34.00L-158.55 34.00Q-160.25 36.26-162.43 38.44Q-164.62 40.63-167.44 42.32Q-170.26 44.01-173.78 45.00Q-177.31 45.99-181.54 45.99L-181.54 45.99Q-188.45 45.99-194.44 43.31Q-200.43 40.63-204.87 35.69Q-209.31 30.76-211.92 23.78Q-214.53 16.80-214.53 8.06ZM-178.72 34.71L-178.72 34.71Q-173.36 34.71-168.57 32.17Q-163.77 29.63-160.53 25.54L-160.53 25.54L-160.53-13.80Q-164.34-16.48-168.92-18.10Q-173.50-19.72-178.58-19.72L-178.58-19.72Q-183.65-19.72-187.88-17.75Q-192.11-15.77-195.14-12.18Q-198.18-8.58-199.87-3.51Q-201.56 1.57-201.56 7.63L-201.56 7.63Q-201.56 13.56-199.87 18.56Q-198.18 23.57-195.07 27.16Q-191.97 30.76-187.81 32.73Q-183.65 34.71-178.72 34.71Z"/><path xml:space="preserve" font-family="ABeeZee" font-size="141" font-style="normal" font-weight="normal" style="stroke: none; stroke-width: 0; stroke-dasharray: none; stroke-linecap: butt; stroke-dashoffset: 0; stroke-linejoin: miter; stroke-miterlimit: 4; is-custom-font: none; font-file-url: none; fill: rgb(255,252,242); fill-rule: nonzero; opacity: 1; white-space: pre;" d="M-66.34-29.87L-70.15-16.76Q-72.83-17.89-76.49-17.89L-76.49-17.89Q-80.44-17.89-84.18-16.20Q-87.91-14.50-90.80-11.12Q-93.69-7.74-95.46-2.45Q-97.22 2.84-97.22 10.03L-97.22 10.03L-97.22 44.29L-109.91 44.29L-109.91-29.03L-97.64-29.03L-97.64-13.09Q-96.37-16.48-94.26-19.72Q-92.14-22.96-89.25-25.36Q-86.36-27.76-82.56-29.24Q-78.75-30.72-74.10-30.72L-74.10-30.72Q-71.98-30.72-69.94-30.51Q-67.89-30.30-66.34-29.87L-66.34-29.87Z"/><path xml:space="preserve" font-family="ABeeZee" font-size="141" font-style="normal" font-weight="normal" style="stroke: none; stroke-width: 0; stroke-dasharray: none; stroke-linecap: butt; stroke-dashoffset: 0; stroke-linejoin: miter; stroke-miterlimit: 4; is-custom-font: none; font-file-url: none; fill: rgb(255,252,242); fill-rule: nonzero; opacity: 1; white-space: pre;" d="M2.61-29.87L-1.20-16.76Q-3.88-17.89-7.54-17.89L-7.54-17.89Q-11.49-17.89-15.23-16.20Q-18.96-14.50-21.85-11.12Q-24.75-7.74-26.51-2.45Q-28.27 2.84-28.27 10.03L-28.27 10.03L-28.27 44.29L-40.96 44.29L-40.96-29.03L-28.69-29.03L-28.69-13.09Q-27.42-16.48-25.31-19.72Q-23.19-22.96-20.30-25.36Q-17.41-27.76-13.61-29.24Q-9.80-30.72-5.15-30.72L-5.15-30.72Q-3.03-30.72-0.99-30.51Q1.06-30.30 2.61-29.87L2.61-29.87Z"/><path xml:space="preserve" font-family="ABeeZee" font-size="141" font-style="normal" font-weight="normal" style="stroke: none; stroke-width: 0; stroke-dasharray: none; stroke-linecap: butt; stroke-dashoffset: 0; stroke-linejoin: miter; stroke-miterlimit: 4; is-custom-font: none; font-file-url: none; fill: rgb(255,252,242); fill-rule: nonzero; opacity: 1; white-space: pre;" d="M83.12 12.85L31.80 12.85Q33.06 23.14 38.99 28.92Q44.91 34.71 54.64 34.71L54.64 34.71Q60.98 34.71 66.06 33.37Q71.13 32.03 75.79 29.91L75.79 29.91L78.75 40.77Q73.67 43.17 67.33 44.58Q60.98 45.99 53.09 45.99L53.09 45.99Q45.19 45.99 38.85 43.38Q32.50 40.77 28.06 35.90Q23.62 31.04 21.22 23.92Q18.82 16.80 18.82 7.63L18.82 7.63Q18.82-0.54 21.22-7.59Q23.62-14.64 27.99-19.79Q32.36-24.94 38.42-27.83Q44.49-30.72 51.96-30.72L51.96-30.72Q59.85-30.72 65.78-28.04Q71.70-25.36 75.65-20.71Q79.59-16.05 81.57-9.85Q83.54-3.65 83.54 3.26L83.54 3.26Q83.54 8.20 83.12 12.85L83.12 12.85ZM51.68-19.72L51.68-19.72Q43.36-19.72 38.07-14.08Q32.78-8.44 31.65 2.56L31.65 2.56L71.84 2.56Q71.84-8.16 66.48-13.94Q61.12-19.72 51.68-19.72Z"/><path xml:space="preserve" font-family="ABeeZee" font-size="141" font-style="normal" font-weight="normal" style="stroke: none; stroke-width: 0; stroke-dasharray: none; stroke-linecap: butt; stroke-dashoffset: 0; stroke-linejoin: miter; stroke-miterlimit: 4; is-custom-font: none; font-file-url: none; fill: rgb(255,252,242); fill-rule: nonzero; opacity: 1; white-space: pre;" d="M125.42-29.03L125.42-16.76Q129.37-22.68 135.50-26.70Q141.63-30.72 150.09-30.72L150.09-30.72Q162.50-30.72 168.64-23.25Q174.77-15.77 174.77-3.51L174.77-3.51L174.77 44.29L162.08 44.29L162.08-2.10Q162.08-10.13 158.41-14.86Q154.75-19.58 147.98-19.58L147.98-19.58Q144.74-19.58 141.63-18.38Q138.53-17.18 135.64-15.07Q132.75-12.95 130.28-10.13Q127.82-7.31 125.84-4.21L125.84-4.21L125.84 44.29L113.15 44.29L113.15-29.03L125.42-29.03Z"/><path xml:space="preserve" font-family="ABeeZee" font-size="141" font-style="normal" font-weight="normal" style="stroke: none; stroke-width: 0; stroke-dasharray: none; stroke-linecap: butt; stroke-dashoffset: 0; stroke-linejoin: miter; stroke-miterlimit: 4; is-custom-font: none; font-file-url: none; fill: rgb(255,252,242); fill-rule: nonzero; opacity: 1; white-space: pre;" d="M209.74 36.54L209.74 36.54Q209.74 32.17 212.21 29.63Q214.67 27.09 219.18 27.09L219.18 27.09Q222.85 27.09 225.74 29.91Q228.63 32.73 228.63 36.54L228.63 36.54Q228.63 40.77 225.95 43.38Q223.27 45.99 219.18 45.99L219.18 45.99Q215.38 45.99 212.56 43.17Q209.74 40.35 209.74 36.54Z"/><path xml:space="preserve" font-family="ABeeZee" font-size="141" font-style="normal" font-weight="normal" style="stroke: none; stroke-width: 0; stroke-dasharray: none; stroke-linecap: butt; stroke-dashoffset: 0; stroke-linejoin: miter; stroke-miterlimit: 4; is-custom-font: none; font-file-url: none; fill: rgb(255,252,242); fill-rule: nonzero; opacity: 1; white-space: pre;" d="M266.70-5.20L266.70-5.20Q266.70 3.69 269.03 10.95Q271.35 18.21 275.51 23.43Q279.67 28.64 285.45 31.46Q291.24 34.28 298.14 34.28L298.14 34.28Q305.05 34.28 310.13 32.66Q315.21 31.04 320.00 28.22L320.00 28.22L324.09 39.36Q318.87 42.18 312.17 44.08Q305.48 45.99 296.59 45.99L296.59 45.99Q286.86 45.99 278.90 42.46Q270.93 38.94 265.15 32.38Q259.37 25.82 256.20 16.45Q253.02 7.07 253.02-4.63L253.02-4.63Q253.02-15.91 256.20-25.36Q259.37-34.81 265.29-41.65Q271.21-48.48 279.60-52.29Q287.99-56.10 298.29-56.10L298.29-56.10Q305.48-56.10 311.19-54.76Q316.90-53.42 321.97-51.02L321.97-51.02L317.88-39.74Q313.51-41.86 308.93-43.13Q304.35-44.40 298.14-44.40L298.14-44.40Q291.38-44.40 285.60-41.79Q279.81-39.18 275.58-34.10Q271.35-29.03 269.03-21.76Q266.70-14.50 266.70-5.20Z"/></g>
</svg>